<?xml version="1.0" encoding="UTF-8"?>
<svg xmlns="http://www.w3.org/2000/svg" xmlns:xlink="http://www.w3.org/1999/xlink" width="48px" height="48px" viewBox="0 0 48 48" version="1.1">
<g id="surface1">
<path style="fill:none;stroke-width:2;stroke-linecap:round;stroke-linejoin:round;stroke:rgb(0%,0%,0%);stroke-opacity:1;stroke-miterlimit:4;" d="M 15 8 L 15.009766 8 " transform="matrix(2,0,0,2,0,0)"/>
<path style="fill:none;stroke-width:2;stroke-linecap:round;stroke-linejoin:round;stroke:rgb(0%,0%,0%);stroke-opacity:1;stroke-miterlimit:4;" d="M 11 21 L 6 21 C 4.34375 21 3 19.65625 3 18 L 3 6 C 3 4.34375 4.34375 3 6 3 L 18 3 C 19.65625 3 21 4.34375 21 6 L 21 11.5 " transform="matrix(2,0,0,2,0,0)"/>
<path style="fill:none;stroke-width:2;stroke-linecap:round;stroke-linejoin:round;stroke:rgb(0%,0%,0%);stroke-opacity:1;stroke-miterlimit:4;" d="M 3 16 L 8 11 C 8.927735 10.107422 10.072266 10.107422 11 11 L 13 13 " transform="matrix(2,0,0,2,0,0)"/>
<path style="fill:none;stroke-width:2;stroke-linecap:round;stroke-linejoin:round;stroke:rgb(0%,0%,0%);stroke-opacity:1;stroke-miterlimit:4;" d="M 17.800782 20.816407 L 15.628906 21.955078 C 15.496094 22.023438 15.337891 22.011719 15.216797 21.925782 C 15.097656 21.837891 15.03711 21.691407 15.060547 21.544922 L 15.47461 19.134766 L 13.71875 17.427735 C 13.611328 17.324219 13.572266 17.167969 13.619141 17.027344 C 13.664063 16.884766 13.78711 16.783203 13.935547 16.761719 L 16.363282 16.410157 L 17.449219 14.216797 C 17.515625 14.083985 17.650391 14 17.800782 14 C 17.949219 14 18.083985 14.083985 18.150391 14.216797 L 19.236328 16.410157 L 21.664063 16.761719 C 21.8125 16.783203 21.933594 16.886719 21.980469 17.027344 C 22.025391 17.167969 21.988282 17.322266 21.882813 17.427735 L 20.125 19.134766 L 20.539063 21.544922 C 20.564453 21.691407 20.503907 21.837891 20.382813 21.925782 C 20.263672 22.013672 20.103516 22.025391 19.972657 21.955078 Z M 17.800782 20.816407 " transform="matrix(2,0,0,2,0,0)"/>
</g>
</svg>
