<?xml version="1.0" encoding="UTF-8" standalone="no"?><!DOCTYPE svg PUBLIC "-//W3C//DTD SVG 1.1//EN" "http://www.w3.org/Graphics/SVG/1.1/DTD/svg11.dtd"><svg width="100%" height="100%" viewBox="0 0 180 180" version="1.1" xmlns="http://www.w3.org/2000/svg" xmlns:xlink="http://www.w3.org/1999/xlink" xml:space="preserve" xmlns:serif="http://www.serif.com/" style="fill-rule:evenodd;clip-rule:evenodd;stroke-linejoin:round;stroke-miterlimit:2;"><g id="surface1"><path d="M152.152,15.418l-99.442,0c-6.819,0 -12.43,5.611 -12.43,12.43l0,12.43l-12.43,0c-6.819,0 -12.43,5.611 -12.43,12.43l0,99.442c0,6.819 5.611,12.43 12.43,12.43l99.442,0c6.819,0 12.43,-5.611 12.43,-12.43l0,-12.43l12.43,0c6.819,0 12.43,-5.611 12.43,-12.43l0,-99.442c0,-6.819 -5.611,-12.43 -12.43,-12.43Zm-99.442,12.43l99.442,0l0,53.901l-12.974,-12.974c-4.821,-4.818 -12.752,-4.818 -17.573,0l-58.508,58.516l-10.387,0l0,-99.442Zm74.582,124.303l-99.442,0l-0,-99.442l12.43,0l0,74.582c0,6.819 5.611,12.43 12.43,12.43l74.582,0l0,12.43Zm-55.936,-93.227c0,-6.819 5.611,-12.43 12.43,-12.43c6.819,0 12.43,5.611 12.43,12.43c0,6.819 -5.611,12.43 -12.43,12.43c-6.819,0 -12.43,-5.611 -12.43,-12.43Z" style="fill-rule:nonzero;"/></g></svg>