<svg xmlns="http://www.w3.org/2000/svg" xmlns:xlink="http://www.w3.org/1999/xlink" width="512px" height="512px" viewBox="0 0 512 512" version="1.1">
<g id="surface1">
<path style="fill:none;stroke-width:2;stroke-linecap:round;stroke-linejoin:round;stroke:rgb(0%,0%,0%);stroke-opacity:1;stroke-miterlimit:4;" d="M 15 8.000061 L 15.010071 8.000061 " transform="matrix(21.333333,0,0,21.333333,0,0)"/>
<path style="fill:none;stroke-width:2;stroke-linecap:round;stroke-linejoin:round;stroke:rgb(0%,0%,0%);stroke-opacity:1;stroke-miterlimit:4;" d="M 11.000061 21 L 6 21 C 4.343079 21 3 19.656921 3 18 L 3 6 C 3 4.343079 4.343079 3 6 3 L 18 3 C 19.656921 3 21 4.343079 21 6 L 21 11.499939 " transform="matrix(21.333333,0,0,21.333333,0,0)"/>
<path style="fill:none;stroke-width:2;stroke-linecap:round;stroke-linejoin:round;stroke:rgb(0%,0%,0%);stroke-opacity:1;stroke-miterlimit:4;" d="M 3 15.999939 L 8.000061 11.000061 C 8.92804 10.107056 10.072083 10.107056 11.000061 11.000061 L 12.999939 12.999939 " transform="matrix(21.333333,0,0,21.333333,0,0)"/>
<path style="fill:none;stroke-width:2;stroke-linecap:round;stroke-linejoin:round;stroke:rgb(0%,0%,0%);stroke-opacity:1;stroke-miterlimit:4;" d="M 17.800049 20.817078 L 15.628052 21.955078 C 15.496582 22.023376 15.33783 22.011841 15.217529 21.925049 C 15.097412 21.83844 15.036438 21.691223 15.060059 21.544922 L 15.474976 19.133972 L 13.718079 17.427063 C 13.610962 17.323608 13.572327 17.168152 13.618652 17.026611 C 13.664795 16.885071 13.787659 16.782349 13.935059 16.762024 L 16.363037 16.409912 L 17.449036 14.217041 C 17.51532 14.08374 17.651184 13.999512 17.800049 13.999512 C 17.94873 13.999512 18.084778 14.08374 18.151062 14.217041 L 19.237061 16.409912 L 21.665039 16.762024 C 21.81189 16.783081 21.934204 16.885803 21.980164 17.026978 C 22.026306 17.168152 21.98822 17.323242 21.882019 17.427063 L 20.124939 19.133972 L 20.53894 21.544006 C 20.564392 21.690674 20.50415 21.838806 20.383667 21.926147 C 20.263184 22.013489 20.103516 22.024658 19.972046 21.955078 Z M 17.800049 20.817078 " transform="matrix(21.333333,0,0,21.333333,0,0)"/>
</g>
</svg>