<?xml version="1.0" encoding="UTF-8" standalone="no"?><!DOCTYPE svg PUBLIC "-//W3C//DTD SVG 1.1//EN" "http://www.w3.org/Graphics/SVG/1.1/DTD/svg11.dtd"><svg width="100%" height="100%" viewBox="0 0 192 192" version="1.1" xmlns="http://www.w3.org/2000/svg" xmlns:xlink="http://www.w3.org/1999/xlink" xml:space="preserve" xmlns:serif="http://www.serif.com/" style="fill-rule:evenodd;clip-rule:evenodd;stroke-linejoin:round;stroke-miterlimit:2;"><g id="surface1"><path d="M162.55,15.33l-107.561,0c-7.376,0 -13.445,6.069 -13.445,13.445l0,13.445l-13.445,0c-7.376,0 -13.445,6.069 -13.445,13.445l0,107.561c0,7.376 6.069,13.445 13.445,13.445l107.561,0c7.376,0 13.445,-6.069 13.445,-13.445l0,-13.445l13.445,0c7.376,0 13.445,-6.069 13.445,-13.445l0,-107.561c0,-7.376 -6.069,-13.445 -13.445,-13.445Zm-107.561,13.445l107.561,0l0,58.301l-14.033,-14.033c-5.215,-5.211 -13.793,-5.211 -19.008,0l-63.284,63.293l-11.235,0l0,-107.561Zm80.67,134.451l-107.561,0l-0,-107.561l13.445,0l0,80.67c0,7.376 6.069,13.445 13.445,13.445l80.67,0l0,13.445Zm-60.503,-100.838c0,-7.376 6.069,-13.445 13.445,-13.445c7.376,0 13.445,6.069 13.445,13.445c0,7.376 -6.069,13.445 -13.445,13.445c-7.376,0 -13.445,-6.069 -13.445,-13.445Z" style="fill-rule:nonzero;"/></g></svg>