<?xml version="1.0" encoding="UTF-8" standalone="no"?><!DOCTYPE svg PUBLIC "-//W3C//DTD SVG 1.1//EN" "http://www.w3.org/Graphics/SVG/1.1/DTD/svg11.dtd"><svg width="100%" height="100%" viewBox="0 0 48 48" version="1.1" xmlns="http://www.w3.org/2000/svg" xmlns:xlink="http://www.w3.org/1999/xlink" xml:space="preserve" xmlns:serif="http://www.serif.com/" style="fill-rule:evenodd;clip-rule:evenodd;stroke-linejoin:round;stroke-miterlimit:2;"><g id="surface1"><path d="M41.519,2.977l-28.03,0c-1.922,0 -3.504,1.582 -3.504,3.504l0,3.504l-3.504,0c-1.922,0 -3.504,1.582 -3.504,3.504l0,28.03c0,1.922 1.582,3.504 3.504,3.504l28.03,0c1.922,0 3.504,-1.582 3.504,-3.504l0,-3.504l3.504,0c1.922,0 3.504,-1.582 3.504,-3.504l0,-28.03c0,-1.922 -1.582,-3.504 -3.504,-3.504Zm-28.03,3.504l28.03,0l0,15.193l-3.657,-3.657c-1.359,-1.358 -3.595,-1.358 -4.953,0l-16.492,16.494l-2.928,0l0,-28.03Zm21.023,35.038l-28.03,0l-0,-28.03l3.504,0l0,21.023c0,1.922 1.582,3.504 3.504,3.504l21.023,0l0,3.504Zm-15.767,-26.278c0,-1.922 1.582,-3.504 3.504,-3.504c1.922,0 3.504,1.582 3.504,3.504c0,1.922 -1.582,3.504 -3.504,3.504c-1.922,0 -3.504,-1.582 -3.504,-3.504Z" style="fill-rule:nonzero;"/></g></svg>