<?xml version="1.0" encoding="UTF-8"?>
<svg xmlns="http://www.w3.org/2000/svg" xmlns:xlink="http://www.w3.org/1999/xlink" width="180px" height="180px" viewBox="0 0 180 180" version="1.1">
<g id="surface1">
<path style="fill:none;stroke-width:2;stroke-linecap:round;stroke-linejoin:round;stroke:rgb(0%,0%,0%);stroke-opacity:1;stroke-miterlimit:4;" d="M 15 8 L 15.009896 8 " transform="matrix(7.5,0,0,7.5,0,0)"/>
<path style="fill:none;stroke-width:2;stroke-linecap:round;stroke-linejoin:round;stroke:rgb(0%,0%,0%);stroke-opacity:1;stroke-miterlimit:4;" d="M 11 21 L 6 21 C 4.343229 21 3 19.656771 3 18 L 3 6 C 3 4.343229 4.343229 3 6 3 L 18 3 C 19.656771 3 21 4.343229 21 6 L 21 11.5 " transform="matrix(7.5,0,0,7.5,0,0)"/>
<path style="fill:none;stroke-width:2;stroke-linecap:round;stroke-linejoin:round;stroke:rgb(0%,0%,0%);stroke-opacity:1;stroke-miterlimit:4;" d="M 3 16 L 8 11 C 8.928125 10.107292 10.071875 10.107292 11 11 L 13 13 " transform="matrix(7.5,0,0,7.5,0,0)"/>
<path style="fill:none;stroke-width:2;stroke-linecap:round;stroke-linejoin:round;stroke:rgb(0%,0%,0%);stroke-opacity:1;stroke-miterlimit:4;" d="M 17.8 20.817188 L 15.628125 21.955209 C 15.496354 22.023438 15.338021 22.01198 15.217709 21.925 C 15.097396 21.838542 15.036459 21.691146 15.059896 21.544792 L 15.475 19.133854 L 13.718229 17.427084 C 13.610938 17.323438 13.572396 17.168229 13.61875 17.026563 C 13.664584 16.884896 13.7875 16.782292 13.934896 16.761979 L 16.363021 16.409896 L 17.448959 14.217188 C 17.515104 14.083854 17.651042 13.999479 17.8 13.999479 C 17.948959 13.999479 18.084896 14.083854 18.151042 14.217188 L 19.236979 16.409896 L 21.665105 16.761979 C 21.81198 16.783334 21.934375 16.885938 21.980209 17.027084 C 22.026563 17.168229 21.988021 17.323438 21.881771 17.427084 L 20.125 19.133854 L 20.539063 21.54375 C 20.564584 21.690625 20.504167 21.839063 20.383854 21.926042 C 20.263021 22.013542 20.103646 22.02448 19.971875 21.955209 Z M 17.8 20.817188 " transform="matrix(7.5,0,0,7.5,0,0)"/>
</g>
</svg>
