<?xml version="1.0" encoding="UTF-8"?>
<svg xmlns="http://www.w3.org/2000/svg" xmlns:xlink="http://www.w3.org/1999/xlink" width="192px" height="192px" viewBox="0 0 192 192" version="1.1">
<g id="surface1">
<path style="fill:none;stroke-width:2;stroke-linecap:round;stroke-linejoin:round;stroke:rgb(0%,0%,0%);stroke-opacity:1;stroke-miterlimit:4;" d="M 15 8 L 15.010254 8 " transform="matrix(8,0,0,8,0,0)"/>
<path style="fill:none;stroke-width:2;stroke-linecap:round;stroke-linejoin:round;stroke:rgb(0%,0%,0%);stroke-opacity:1;stroke-miterlimit:4;" d="M 11 21 L 6 21 C 4.343262 21 3 19.656739 3 18 L 3 6 C 3 4.343262 4.343262 3 6 3 L 18 3 C 19.656739 3 21 4.343262 21 6 L 21 11.5 " transform="matrix(8,0,0,8,0,0)"/>
<path style="fill:none;stroke-width:2;stroke-linecap:round;stroke-linejoin:round;stroke:rgb(0%,0%,0%);stroke-opacity:1;stroke-miterlimit:4;" d="M 3 16 L 8 11 C 8.928223 10.106934 10.072266 10.106934 11 11 L 13 13 " transform="matrix(8,0,0,8,0,0)"/>
<path style="fill:none;stroke-width:2;stroke-linecap:round;stroke-linejoin:round;stroke:rgb(0%,0%,0%);stroke-opacity:1;stroke-miterlimit:4;" d="M 17.799805 20.816895 L 15.62793 21.955078 C 15.496582 22.023438 15.337891 22.011719 15.217285 21.924805 C 15.097168 21.838379 15.036621 21.691407 15.060059 21.544922 L 15.475098 19.133789 L 13.718262 17.427246 C 13.61084 17.323731 13.572266 17.167969 13.618653 17.026367 C 13.664551 16.885254 13.787598 16.782227 13.935059 16.762207 L 16.362793 16.409668 L 17.449219 14.216797 C 17.515137 14.083496 17.651367 13.999512 17.799805 13.999512 C 17.948731 13.999512 18.084961 14.083496 18.150879 14.216797 L 19.237305 16.409668 L 21.665039 16.762207 C 21.812012 16.783203 21.934082 16.885742 21.979981 17.026856 C 22.026368 17.167969 21.988282 17.323242 21.881836 17.427246 L 20.125 19.133789 L 20.539063 21.543946 C 20.564453 21.69043 20.503907 21.838868 20.383789 21.92627 C 20.263184 22.013672 20.103516 22.024414 19.972168 21.955078 Z M 17.799805 20.816895 " transform="matrix(8,0,0,8,0,0)"/>
</g>
</svg>
