<?xml version="1.0" encoding="UTF-8" standalone="no"?><!DOCTYPE svg PUBLIC "-//W3C//DTD SVG 1.1//EN" "http://www.w3.org/Graphics/SVG/1.1/DTD/svg11.dtd"><svg width="100%" height="100%" viewBox="0 0 512 512" version="1.1" xmlns="http://www.w3.org/2000/svg" xmlns:xlink="http://www.w3.org/1999/xlink" xml:space="preserve" xmlns:serif="http://www.serif.com/" style="fill-rule:evenodd;clip-rule:evenodd;stroke-linejoin:round;stroke-miterlimit:2;"><g id="surface1"><path d="M443.636,30.836l-300.218,0c-20.587,0 -37.527,16.94 -37.527,37.527l0,37.527l-37.527,0c-20.587,0 -37.527,16.94 -37.527,37.527l0,300.218c0,20.587 16.94,37.527 37.527,37.527l300.218,0c20.587,0 37.527,-16.94 37.527,-37.527l0,-37.527l37.527,0c20.587,0 37.527,-16.94 37.527,-37.527l0,-300.218c0,-20.587 -16.94,-37.527 -37.527,-37.527Zm-300.218,37.527l300.218,0l0,162.728l-39.169,-39.169c-14.555,-14.546 -38.499,-14.546 -53.054,0l-176.636,176.66l-31.359,0l0,-300.218Zm225.164,375.273l-300.218,0l0,-300.218l37.527,-0l0,225.164c0,20.587 16.94,37.527 37.527,37.527l225.164,0l0,37.527Zm-168.873,-281.455c0,-20.587 16.94,-37.527 37.527,-37.527c20.587,0 37.527,16.94 37.527,37.527c0,20.587 -16.94,37.527 -37.527,37.527c-20.587,0 -37.527,-16.94 -37.527,-37.527Z" style="fill-rule:nonzero;"/></g></svg>